<!DOCTYPE svg PUBLIC "-//W3C//DTD SVG 20010904//EN" "http://www.w3.org/TR/2001/REC-SVG-20010904/DTD/svg10.dtd">
<svg version="1.0" xmlns="http://www.w3.org/2000/svg" width="1024px" height="393px" viewBox="0 0 10240 3930" preserveAspectRatio="xMidYMid meet">
<g id="layer101" fill="#010101" stroke="none">
 <path d="M0 1965 l0 -1965 5120 0 5120 0 0 1965 0 1965 -5120 0 -5120 0 0 -1965z"/>
 </g>
<g id="layer102" fill="#303030" stroke="none">
 <path d="M0 1965 l0 -1965 5120 0 5120 0 0 1965 0 1965 -5120 0 -5120 0 0 -1965z m5198 1080 c10 -4 12 -63 12 -272 0 -148 0 -272 0 -277 0 -5 26 16 58 46 67 65 136 102 224 123 72 17 200 20 228 5 10 -5 34 -12 54 -14 20 -3 53 -15 74 -27 43 -26 125 -90 130 -101 2 -5 10 -8 18 -8 8 0 14 -5 14 -12 0 -6 11 -25 24 -42 31 -41 64 -107 88 -176 24 -69 31 -104 29 -157 -1 -23 3 -44 9 -48 13 -8 13 -62 0 -70 -5 -3 -10 -25 -10 -48 0 -63 -36 -183 -77 -257 -63 -111 -154 -195 -258 -238 -97 -39 -111 -42 -210 -41 -136 1 -250 46 -342 136 -29 28 -53 51 -54 50 0 -1 -2 -35 -4 -74 -2 -40 -6 -77 -10 -83 -9 -15 -311 -12 -324 3 -10 13 -9 1566 2 1583 5 9 300 8 325 -1z m4360 -369 c100 -21 234 -86 256 -124 6 -11 20 -31 30 -46 48 -69 81 -225 57 -274 -4 -9 -21 -44 -36 -77 -45 -96 -138 -158 -310 -209 -49 -15 -97 -30 -105 -33 -8 -3 -19 -5 -24 -4 -21 5 -141 -46 -167 -70 -36 -34 -36 -55 0 -98 28 -34 29 -35 117 -37 49 -1 93 1 98 4 5 3 24 6 43 8 18 2 46 10 61 17 78 42 145 68 153 60 4 -4 35 -55 68 -113 43 -76 57 -108 49 -117 -21 -26 -156 -81 -278 -114 -175 -47 -399 -17 -512 70 -13 10 -31 21 -41 24 -9 4 -20 15 -24 24 -4 10 -17 34 -29 53 -87 134 -72 301 36 406 47 46 138 93 208 109 18 3 34 11 37 16 4 5 16 9 29 9 12 0 26 3 29 6 4 4 22 8 41 10 19 2 49 10 67 19 17 9 45 18 61 21 28 3 96 46 99 62 9 49 4 69 -28 100 -18 17 -41 32 -51 33 -94 5 -159 6 -166 1 -5 -3 -25 -7 -45 -8 -45 -5 -169 -49 -191 -69 -9 -8 -21 -15 -27 -15 -6 0 -16 -7 -23 -15 -26 -31 -53 -15 -85 50 -8 17 -31 55 -50 85 -33 54 -44 90 -26 90 5 0 39 17 75 39 37 21 101 51 144 65 42 15 84 30 92 33 8 3 35 7 60 9 25 2 68 8 95 13 61 11 117 8 213 -13z m-2473 1 c11 -2 33 -9 48 -16 16 -6 34 -11 41 -11 33 0 177 -85 241 -141 39 -34 72 -67 75 -73 8 -17 42 -69 59 -89 9 -11 16 -24 16 -30 0 -7 8 -34 19 -62 10 -27 21 -57 24 -65 3 -8 4 -23 3 -33 -1 -10 3 -25 9 -32 14 -17 4 -165 -13 -205 -4 -8 -14 -35 -22 -60 -9 -24 -25 -60 -35 -78 -11 -18 -20 -37 -20 -42 0 -5 -18 -28 -40 -52 -22 -24 -40 -49 -40 -55 0 -7 -5 -13 -11 -13 -7 0 -25 -13 -41 -30 -15 -16 -31 -30 -34 -30 -3 0 -28 -15 -57 -33 -29 -19 -84 -44 -122 -56 -39 -12 -77 -26 -86 -31 -9 -5 -26 -6 -37 -3 -11 2 -23 0 -26 -6 -9 -14 -143 -14 -152 0 -3 6 -15 8 -26 6 -11 -3 -28 -2 -37 3 -9 5 -45 19 -81 31 -77 27 -121 50 -175 93 -21 17 -48 36 -59 41 -10 6 -24 19 -30 30 -6 11 -25 38 -43 61 -38 49 -115 203 -107 215 3 5 2 14 -1 19 -6 9 -17 116 -15 145 1 32 8 101 11 105 1 3 3 10 4 15 3 16 16 46 53 125 52 111 175 231 297 291 50 24 93 43 97 41 4 -1 27 5 50 12 24 8 54 17 68 19 25 5 157 1 195 -6z m-6030 -7 c4 -6 12 -10 18 -9 7 1 25 -3 40 -9 16 -7 34 -12 41 -12 15 0 145 -67 167 -86 8 -8 20 -14 26 -14 6 0 18 -11 27 -24 15 -24 15 -25 -34 -61 -28 -20 -50 -41 -50 -46 0 -5 -5 -9 -11 -9 -6 0 -41 -23 -77 -51 l-65 -52 -46 23 c-55 27 -168 37 -227 21 -84 -23 -158 -91 -203 -187 -17 -37 -22 -41 -54 -39 -19 1 -40 5 -46 9 -7 4 -18 5 -26 2 -8 -3 -17 -1 -20 4 -3 5 -16 10 -28 9 -12 0 -51 6 -87 14 -84 17 -84 16 -2 185 24 51 59 98 111 153 42 43 80 79 85 79 5 0 17 7 26 15 8 8 70 32 135 54 103 35 132 41 207 41 49 0 90 -4 93 -10z m3212 -4 c12 0 25 -4 29 -8 4 -5 14 -8 21 -8 26 0 164 -62 213 -96 27 -19 54 -34 59 -34 34 0 11 -33 -85 -126 -101 -96 -134 -119 -134 -94 0 6 -8 13 -17 17 -10 3 -25 12 -33 18 -8 7 -41 22 -72 33 -45 17 -74 21 -140 18 -97 -4 -166 -33 -217 -91 -39 -45 -74 -113 -67 -131 4 -12 75 -14 435 -14 l429 0 4 -56 c1 -31 -1 -58 -6 -61 -4 -3 -5 -19 -2 -36 3 -17 1 -36 -5 -44 -7 -7 -9 -16 -6 -19 11 -11 -63 -198 -104 -261 -108 -165 -278 -252 -484 -247 -116 3 -202 24 -292 73 -67 36 -167 116 -177 141 -3 8 -20 35 -38 60 -19 25 -44 77 -57 115 -12 39 -25 77 -28 85 -17 47 -15 262 2 290 4 6 5 14 2 16 -15 15 76 192 135 265 48 58 259 190 292 181 4 -2 13 1 20 6 6 4 38 9 71 11 33 2 62 5 65 8 3 3 41 2 85 -2 44 -4 90 -8 102 -9z m4438 -613 c-3 -328 -7 -598 -9 -600 -6 -7 -318 -4 -325 3 -7 7 -8 431 -1 874 l5 325 150 5 c83 3 158 2 167 -3 16 -7 17 -48 13 -604z m-6823 589 c10 -10 17 -1178 7 -1194 -6 -10 -44 -13 -164 -11 -85 1 -159 4 -164 7 -5 4 -8 259 -8 603 l2 598 85 5 c98 6 232 1 242 -8z m595 4 c4 -4 8 -180 10 -392 3 -427 2 -415 72 -485 42 -42 97 -73 117 -65 7 3 15 2 18 -2 7 -12 132 -5 158 9 34 18 109 100 120 131 6 16 11 200 11 420 l2 393 150 2 c130 2 152 0 163 -14 9 -13 12 -111 12 -412 0 -479 -1 -486 -89 -640 -24 -40 -61 -81 -74 -81 -6 0 -25 -11 -43 -25 -18 -14 -37 -25 -42 -25 -5 0 -27 -8 -48 -17 -22 -9 -47 -15 -57 -14 -10 1 -24 -3 -32 -9 -12 -10 -102 -8 -135 3 -8 3 -31 8 -51 11 -58 10 -154 63 -193 107 -20 22 -41 37 -46 34 -6 -3 -10 -33 -10 -65 0 -32 -5 -62 -10 -65 -6 -4 -82 -8 -170 -10 l-160 -3 -1 252 c0 138 -2 412 -4 608 l-3 357 31 3 c58 5 298 1 304 -6z m5656 -60 c3 -39 3 -273 1 -521 -2 -247 -6 -579 -7 -737 -1 -158 -5 -289 -7 -291 -3 -2 -79 -7 -169 -10 l-164 -5 6 601 c4 331 7 697 7 814 0 193 2 212 18 216 9 3 83 5 163 5 l146 -1 6 -71z m-7481 -624 c-9 -48 92 -163 181 -205 91 -43 198 -34 278 24 13 10 22 8 47 -9 16 -12 32 -22 35 -22 2 0 21 -16 41 -35 21 -19 42 -35 47 -35 5 0 17 -8 27 -17 10 -10 32 -30 51 -46 35 -29 36 -52 4 -64 -10 -4 -37 -20 -60 -35 -36 -25 -86 -49 -168 -83 -11 -4 -25 -7 -32 -6 -6 1 -14 -3 -17 -8 -3 -5 -15 -7 -26 -4 -11 3 -26 1 -33 -5 -12 -10 -130 -9 -157 2 -8 3 -31 7 -50 10 -19 2 -46 8 -60 12 -45 13 -167 80 -196 107 -16 15 -33 27 -38 27 -13 0 -56 41 -56 52 0 5 -11 24 -24 41 -64 84 -119 218 -101 247 3 5 19 10 35 10 16 0 32 5 35 11 4 6 13 8 20 5 17 -6 157 23 170 35 14 13 51 6 47 -9z m3572 -692 c32 0 34 -3 89 -116 32 -63 55 -119 52 -124 -3 -4 -73 -6 -157 -4 -152 5 -153 5 -175 32 -12 15 -22 33 -23 40 0 7 -18 48 -40 92 l-40 79 118 3 c64 2 123 2 130 1 8 -2 28 -3 46 -3z m4378 -15 c19 -8 49 -30 66 -49 27 -30 34 -51 45 -121 6 -39 -59 -149 -89 -150 -5 -1 -28 -7 -52 -14 -36 -12 -48 -12 -84 0 -87 28 -147 122 -129 201 12 54 34 98 48 98 7 0 13 4 13 8 0 16 65 41 106 41 23 1 57 -6 76 -14z m-6798 -23 c20 -12 41 -22 47 -22 5 0 9 -5 9 -11 0 -6 8 -23 18 -37 14 -20 19 -44 18 -88 -1 -54 -5 -67 -33 -101 -53 -67 -125 -88 -204 -62 -46 16 -78 46 -100 94 -21 46 -23 66 -9 117 31 110 159 166 254 110z"/>
 <path d="M5468 2404 c-3 -3 -20 -7 -38 -9 -38 -5 -106 -43 -137 -77 -11 -12 -35 -50 -53 -83 -31 -57 -32 -62 -32 -185 0 -116 2 -129 26 -174 32 -59 79 -107 142 -142 36 -20 62 -27 116 -28 38 -1 72 2 75 7 2 4 13 5 23 2 48 -15 183 96 224 185 17 37 20 64 20 155 0 131 -16 176 -91 253 -46 48 -109 89 -120 78 -3 -2 -23 2 -45 10 -41 14 -100 19 -110 8z"/>
 <path d="M6877 2396 c-48 -13 -147 -74 -147 -90 0 -4 -11 -16 -23 -27 -27 -21 -81 -134 -72 -149 4 -6 2 -16 -3 -23 -11 -13 -11 -101 0 -112 4 -4 4 -13 2 -20 -8 -19 46 -123 73 -145 13 -10 23 -22 23 -28 0 -16 90 -71 140 -85 48 -14 128 -16 148 -3 7 4 17 4 22 1 18 -11 116 41 159 84 96 96 137 271 87 371 -9 18 -16 39 -16 45 0 7 -13 27 -30 45 -16 18 -30 34 -30 37 0 12 -58 55 -105 78 -63 31 -161 40 -228 21z"/>
 <path d="M3963 1922 c-133 -3 -149 -11 -118 -59 46 -69 159 -154 185 -138 5 3 15 3 22 -1 16 -10 109 -11 115 -1 2 4 13 5 23 2 20 -6 80 19 80 34 0 5 9 11 20 14 11 3 20 12 20 21 0 9 6 16 13 16 19 0 61 90 48 103 -11 11 -171 15 -408 9z"/>
 </g>
<g id="layer103" fill="#d3d3d3" stroke="none">
 <path d="M0 1965 l0 -1965 5120 0 5120 0 0 1965 0 1965 -5120 0 -5120 0 0 -1965z m5173 1096 l37 -1 0 -275 c0 -151 1 -275 3 -275 2 0 26 20 53 45 27 26 83 63 123 83 l75 37 150 0 151 0 79 -39 c195 -95 311 -300 319 -561 10 -363 -200 -628 -518 -651 -142 -11 -275 32 -373 121 -29 26 -56 45 -59 41 -4 -4 -8 -35 -9 -69 l-1 -62 -171 -3 -171 -2 2 804 2 805 70 3 c39 2 99 2 135 1 36 0 82 -2 103 -2z m4432 -385 c185 -53 288 -171 302 -345 6 -77 -6 -131 -41 -200 -21 -39 -96 -106 -155 -135 -47 -24 -178 -71 -225 -80 -64 -14 -144 -39 -185 -59 -34 -18 -48 -31 -55 -55 -12 -41 9 -65 74 -87 44 -15 56 -15 137 0 87 15 196 52 237 81 11 8 25 14 31 14 10 -1 47 -57 109 -172 l36 -66 -27 -20 c-75 -53 -211 -104 -323 -122 -271 -42 -505 47 -586 224 -23 50 -27 72 -27 152 0 81 4 100 27 148 33 66 77 106 171 151 65 31 98 42 245 81 72 19 68 18 118 34 123 39 136 141 23 179 -67 22 -247 3 -318 -34 -15 -8 -32 -15 -38 -15 -5 0 -36 -16 -69 -35 -32 -20 -62 -35 -67 -33 -5 2 -40 53 -78 113 l-70 110 31 27 c69 60 226 126 363 152 89 17 288 12 360 -8z m-2447 -12 c113 -33 191 -81 282 -173 141 -143 200 -295 186 -478 -24 -327 -326 -595 -668 -593 -56 1 -83 5 -177 26 -78 17 -211 93 -284 163 -66 61 -131 162 -166 253 -20 53 -31 185 -21 267 31 274 262 504 555 552 71 11 225 2 293 -17z m-6043 -4 c92 -26 182 -72 240 -123 l47 -42 -24 -21 c-49 -45 -238 -184 -248 -184 -6 0 -21 7 -33 15 -31 20 -115 45 -152 45 -29 0 -112 -26 -147 -46 -43 -24 -103 -93 -125 -143 -14 -31 -26 -57 -27 -59 -3 -2 -112 18 -186 33 -14 3 -47 10 -75 15 -27 6 -53 14 -57 18 -11 11 33 130 72 198 54 92 171 202 260 246 138 67 319 87 455 48z m3150 10 c67 -14 78 -17 136 -39 62 -24 164 -82 194 -112 19 -19 19 -20 -88 -127 l-108 -109 -87 44 c-160 81 -269 77 -390 -14 -31 -24 -92 -116 -92 -140 0 -10 94 -13 437 -13 l436 0 -6 -92 c-21 -314 -160 -532 -392 -617 -68 -25 -246 -41 -310 -28 -159 33 -259 83 -347 175 -77 80 -108 131 -142 232 -39 117 -43 261 -12 395 21 94 108 241 177 299 77 65 178 117 279 145 44 12 262 13 315 1z m3871 -389 c-3 -207 -5 -575 -6 -818 l0 -443 -170 0 -170 0 -2 473 c-2 259 -2 628 0 819 l3 347 142 3 c78 2 157 1 175 -1 l34 -3 -6 -377z m578 372 c-1 -7 -2 -280 -2 -607 l-2 -594 -76 -4 c-42 -2 -121 -2 -176 0 l-101 3 6 387 c4 213 7 485 7 604 l0 217 153 3 c83 2 161 3 172 3 11 0 20 -6 19 -12z m-6828 -6 c5 -4 11 -1181 6 -1199 -4 -16 -20 -18 -173 -18 l-169 0 -2 606 c-2 333 0 608 4 612 6 6 328 6 334 -1z m601 -1 c4 -4 6 -175 4 -381 l-2 -373 25 -50 c31 -62 86 -108 150 -127 126 -38 232 3 289 109 21 40 22 54 27 436 l5 395 160 0 160 0 3 -443 c2 -425 1 -444 -19 -504 -102 -303 -515 -401 -748 -177 -22 22 -42 39 -45 39 -3 0 -6 -30 -8 -66 l-3 -66 -167 -3 -168 -2 -1 251 c0 138 -2 412 -4 608 l-3 357 31 3 c62 6 307 2 314 -6z m-1820 -713 c19 -56 89 -133 149 -163 67 -35 198 -36 263 -2 25 12 50 22 57 22 23 0 254 -183 254 -202 0 -23 -79 -82 -167 -124 -281 -135 -621 -44 -797 213 -44 64 -110 218 -101 233 3 4 19 10 37 14 18 3 65 13 103 21 39 9 84 18 100 21 17 3 32 8 35 10 2 3 15 4 29 2 19 -2 28 -13 38 -45z m3654 -773 c32 -63 58 -121 58 -127 1 -10 -39 -13 -167 -13 l-169 0 -56 116 c-32 63 -57 122 -57 130 0 12 26 14 167 12 l166 -3 58 -115z m4314 90 c63 -39 99 -121 84 -192 -12 -53 -60 -115 -105 -134 -40 -17 -112 -18 -151 -3 -34 13 -80 55 -99 91 -31 59 -11 170 38 214 40 36 61 43 132 44 52 0 77 -5 101 -20z m-6825 -10 c103 -53 129 -190 53 -281 -72 -85 -185 -92 -269 -15 -40 36 -46 47 -53 98 -12 88 22 162 92 200 45 24 128 23 177 -2z"/>
 <path d="M5403 2379 c-63 -24 -131 -89 -164 -156 -21 -43 -24 -61 -24 -173 0 -120 1 -127 29 -178 34 -60 76 -101 139 -134 34 -18 59 -22 127 -23 73 0 93 4 142 28 71 35 130 101 159 176 31 83 25 224 -14 303 -71 146 -245 214 -394 157z"/>
 <path d="M6843 2375 c-75 -34 -145 -103 -179 -178 -24 -53 -28 -74 -28 -148 0 -74 4 -93 28 -140 37 -72 99 -134 166 -167 46 -22 68 -27 135 -27 67 0 89 5 137 29 67 33 126 93 165 168 24 46 27 64 27 143 0 79 -3 97 -28 147 -61 122 -178 198 -302 197 -50 0 -83 -7 -121 -24z"/>
 <path d="M3840 1909 c0 -24 34 -81 66 -109 78 -68 173 -92 278 -70 45 9 69 21 104 53 43 40 86 113 76 129 -8 13 -524 10 -524 -3z"/>
 </g>
<g id="layer104" fill="#ffffff" stroke="none">
 <path d="M0 1965 l0 -1965 5120 0 5120 0 0 1965 0 1965 -5120 0 -5120 0 0 -1965z m5050 1102 c30 -3 69 0 87 6 23 8 39 8 57 -1 l26 -11 2 -266 3 -265 48 45 c53 49 168 111 191 102 9 -4 18 -2 22 4 3 6 13 8 21 5 9 -4 22 -1 29 5 16 13 181 8 204 -6 8 -5 25 -10 38 -11 91 -10 263 -158 319 -274 45 -92 67 -166 68 -230 0 -30 4 -61 9 -68 14 -23 -5 -194 -30 -272 -55 -174 -158 -300 -300 -367 -42 -20 -90 -37 -108 -37 -17 -1 -35 -4 -41 -8 -13 -8 -160 -2 -174 6 -6 4 -16 4 -21 1 -29 -18 -179 55 -252 123 l-28 26 0 -53 c0 -93 3 -91 -183 -91 -114 0 -167 4 -175 12 -17 17 -17 1609 -1 1625 11 11 54 11 189 0z m4490 -367 c8 -1 22 -4 30 -7 8 -3 27 -7 41 -8 89 -8 229 -117 275 -213 22 -47 27 -73 29 -147 5 -150 -35 -232 -151 -310 -57 -39 -133 -67 -378 -140 -108 -32 -152 -69 -133 -109 33 -69 223 -59 398 21 69 31 82 34 94 22 21 -22 116 -191 110 -197 -2 -3 3 -10 12 -17 26 -19 10 -40 -59 -78 -74 -41 -251 -102 -273 -94 -8 4 -17 1 -21 -5 -4 -6 -21 -8 -40 -5 -19 3 -36 1 -39 -4 -8 -12 -102 -12 -109 0 -3 5 -15 7 -26 4 -11 -3 -49 2 -83 12 -200 56 -317 189 -325 372 -4 72 -1 88 24 143 31 70 92 130 175 173 60 30 102 44 268 88 63 16 127 37 142 45 70 36 76 110 12 133 -49 18 -155 31 -168 20 -6 -4 -31 -10 -55 -12 -25 -3 -63 -13 -85 -22 -22 -10 -50 -18 -62 -19 -13 0 -23 -4 -23 -8 0 -9 -105 -68 -121 -68 -18 1 -149 211 -149 239 0 11 4 21 9 21 6 0 22 11 37 25 55 51 292 146 329 131 8 -3 17 -1 21 5 3 5 14 7 25 4 10 -4 27 -1 36 5 15 8 136 9 233 0z m-5452 -12 c9 -9 15 -9 24 0 15 15 64 16 73 1 4 -6 19 -7 35 -4 16 4 31 2 35 -5 4 -6 15 -8 25 -5 55 17 340 -131 340 -177 0 -12 -209 -228 -221 -228 -4 0 -33 16 -65 35 -32 20 -77 40 -99 46 -22 6 -44 14 -50 17 -11 7 -120 6 -132 -1 -4 -2 -26 -10 -47 -17 -64 -21 -156 -118 -156 -165 0 -24 291 -37 306 -14 4 8 9 8 17 0 14 -14 323 -15 332 -1 8 14 52 13 61 -1 4 -8 30 -10 73 -7 l67 5 -2 -93 c-2 -103 -11 -169 -27 -199 -6 -11 -12 -32 -14 -48 -4 -37 -69 -163 -99 -194 -13 -13 -24 -28 -24 -33 0 -14 -91 -90 -145 -121 -79 -46 -178 -72 -275 -72 -129 0 -148 2 -155 13 -3 6 -10 8 -15 5 -25 -15 -207 65 -242 106 -9 10 -21 19 -26 19 -6 0 -33 25 -61 56 -105 118 -162 277 -156 434 2 47 4 85 5 85 1 0 3 24 5 52 2 59 42 163 88 233 39 58 147 163 200 195 57 33 177 77 193 71 7 -3 16 -1 19 4 3 5 20 6 39 3 19 -3 36 -1 40 6 9 14 19 14 34 -1z m3019 0 c15 -6 31 -11 35 -10 4 1 37 -9 72 -22 159 -60 285 -176 363 -334 25 -51 43 -99 39 -107 -3 -8 0 -17 5 -21 6 -3 9 -15 6 -25 -3 -10 -1 -22 4 -25 13 -7 11 -161 -1 -169 -6 -4 -8 -15 -5 -25 9 -27 -40 -156 -85 -225 -49 -75 -117 -145 -192 -196 -31 -21 -59 -39 -62 -39 -3 0 -29 -11 -58 -24 -66 -30 -135 -49 -149 -41 -5 4 -15 2 -22 -3 -12 -10 -165 -14 -181 -5 -4 3 -26 7 -47 8 -85 7 -280 104 -312 156 -7 11 -18 19 -25 19 -7 0 -15 6 -18 14 -3 8 -25 36 -50 62 -71 78 -127 217 -117 292 3 24 1 42 -6 46 -12 8 -15 88 -4 100 4 3 8 26 9 50 1 24 10 65 20 92 23 62 82 164 94 164 6 0 10 6 10 13 0 17 103 116 161 155 63 42 154 83 192 85 18 2 41 8 52 15 26 15 235 16 272 0z m-5981 -19 c91 -28 193 -82 244 -129 46 -43 45 -61 -7 -95 -15 -10 -69 -51 -121 -91 -52 -41 -99 -74 -106 -74 -7 0 -32 10 -57 23 -65 33 -195 32 -262 -2 -60 -31 -102 -77 -134 -147 -26 -58 -42 -71 -71 -58 -9 4 -21 6 -26 5 -4 -1 -14 3 -22 10 -7 6 -18 8 -23 4 -13 -7 -129 14 -137 26 -2 5 -17 6 -32 3 -16 -3 -35 1 -46 9 -19 14 -19 15 3 83 13 38 43 101 67 140 44 72 110 154 124 154 4 0 22 13 40 30 36 33 162 99 200 104 14 2 36 8 50 14 14 6 75 11 136 11 87 1 127 -4 180 -20z m7015 -54 c11 -117 11 -1203 0 -1210 -14 -8 -14 -72 -1 -80 14 -9 13 -222 -1 -231 -7 -4 -9 -22 -6 -43 l4 -36 -176 -1 c-120 -1 -178 2 -183 10 -12 17 -10 704 2 711 14 8 13 92 -1 101 -7 4 -8 27 -3 73 5 36 8 220 9 409 0 294 2 344 15 352 8 5 87 8 175 7 l160 -2 6 -60z m573 59 c14 -5 16 -35 16 -234 0 -147 -4 -231 -10 -235 -7 -4 -10 -133 -10 -381 1 -205 -1 -378 -5 -384 -10 -16 -330 -13 -342 3 -15 19 -17 1205 -2 1223 9 11 47 14 174 14 90 0 170 -3 179 -6z m-6816 -16 c18 -18 17 -1213 0 -1225 -7 -4 -90 -8 -185 -8 -163 0 -172 1 -177 20 -10 34 -7 133 4 140 6 3 10 24 10 45 0 21 -4 42 -10 45 -6 4 -10 55 -10 120 0 65 4 116 10 120 6 3 10 21 10 40 0 19 -4 37 -10 40 -15 10 -13 648 2 663 17 17 339 17 356 0z m597 -38 c0 -25 2 -49 6 -55 3 -5 6 -163 8 -350 2 -247 6 -348 15 -370 16 -38 69 -89 112 -110 52 -24 144 -33 177 -17 16 8 31 12 33 9 10 -10 86 78 105 122 18 40 19 73 22 430 l2 386 165 3 c146 2 166 1 177 -15 17 -23 19 -828 2 -839 -6 -3 -8 -16 -5 -28 9 -34 -32 -141 -79 -204 -41 -57 -151 -142 -181 -142 -8 0 -26 -7 -39 -16 -15 -10 -34 -14 -49 -10 -14 3 -27 2 -30 -2 -4 -7 -161 -9 -161 -2 0 1 -18 4 -39 6 -50 4 -130 43 -184 89 l-42 37 0 -42 c0 -81 2 -80 -194 -80 -150 0 -175 2 -180 16 -3 9 -6 287 -6 619 0 468 3 605 13 609 6 2 89 4 182 3 l170 -2 0 -45z m-1816 -684 c29 -69 97 -139 158 -162 27 -9 52 -21 58 -26 23 -20 100 -8 171 28 l72 37 76 -59 c42 -32 76 -61 76 -65 0 -4 10 -9 23 -13 24 -6 97 -71 97 -86 0 -16 -69 -73 -123 -103 -29 -16 -56 -32 -62 -36 -22 -16 -108 -43 -148 -46 -23 -2 -42 -4 -42 -5 0 -8 -162 -5 -172 3 -7 5 -19 7 -27 4 -41 -16 -225 64 -289 125 -22 21 -43 38 -46 38 -23 1 -130 164 -160 243 -28 77 -28 115 2 122 40 8 138 25 145 24 4 -1 9 0 12 1 28 11 101 28 126 29 29 1 33 -3 53 -53z m3418 -655 c70 2 133 7 139 11 7 5 19 2 29 -9 16 -16 120 -223 127 -253 2 -10 -33 -13 -177 -13 l-180 1 -64 127 c-61 121 -64 128 -46 141 13 10 22 11 31 3 8 -7 61 -9 141 -8z m4504 -2 c19 -7 47 -23 62 -38 33 -29 71 -97 62 -110 -3 -5 -1 -20 4 -32 11 -31 -11 -95 -47 -138 -28 -34 -107 -71 -153 -71 -38 0 -126 48 -153 84 -30 39 -51 109 -41 133 4 10 8 28 9 39 3 35 48 92 96 118 49 28 106 33 161 15z m-6772 -37 c14 -10 38 -35 55 -55 26 -33 29 -44 29 -106 0 -59 -4 -77 -26 -109 -37 -57 -88 -85 -156 -87 -102 -2 -176 47 -202 134 -25 84 20 189 98 230 49 25 164 21 202 -7z"/>
 <path d="M5470 2390 c-8 -4 -37 -16 -64 -26 -63 -22 -116 -70 -151 -136 -37 -71 -48 -231 -20 -306 26 -69 73 -126 135 -164 50 -30 61 -33 139 -34 68 0 94 4 131 22 63 30 119 88 147 154 13 30 28 62 32 70 6 13 6 155 0 170 -1 3 -3 10 -4 15 0 6 -14 34 -31 64 -16 29 -33 62 -39 72 -5 11 -13 19 -17 19 -4 0 -27 13 -51 30 -24 16 -63 32 -86 36 -23 4 -44 11 -47 15 -7 11 -54 11 -74 -1z"/>
 <path d="M4078 1902 c-210 -2 -250 -7 -217 -28 6 -3 17 -21 25 -39 10 -26 29 -41 81 -67 61 -29 77 -33 149 -32 107 1 160 29 217 116 23 37 22 56 -5 54 -13 0 -125 -2 -250 -4z"/>
 <path d="M6936 2391 c-3 -4 -24 -11 -47 -15 -23 -4 -61 -19 -83 -34 -23 -16 -49 -31 -58 -35 -10 -3 -18 -13 -18 -21 0 -8 -11 -23 -25 -34 -14 -11 -25 -25 -25 -31 0 -7 -7 -28 -17 -49 -9 -20 -15 -42 -14 -49 1 -6 -3 -30 -8 -52 -5 -24 -5 -43 0 -47 5 -3 9 -16 9 -29 0 -55 79 -186 127 -213 70 -37 109 -56 116 -54 4 1 28 -3 54 -8 32 -8 49 -8 57 0 5 5 17 10 26 10 24 -1 149 64 150 78 0 6 4 12 9 12 13 0 56 70 75 125 10 28 22 58 27 67 12 23 12 85 0 93 -5 3 -13 20 -16 38 -9 41 -55 128 -77 145 -9 7 -23 18 -30 25 -27 26 -90 57 -129 63 -22 4 -42 11 -45 15 -3 5 -16 9 -29 9 -13 0 -26 -4 -29 -9z"/>
 </g>

</svg>