<?xml version="1.0" standalone="no"?>
<!DOCTYPE svg PUBLIC "-//W3C//DTD SVG 20010904//EN"
 "http://www.w3.org/TR/2001/REC-SVG-20010904/DTD/svg10.dtd">
<svg version="1.0" xmlns="http://www.w3.org/2000/svg"
 width="64.000000pt" height="64.000000pt" viewBox="0 0 64.000000 64.000000"
 preserveAspectRatio="xMidYMid meet">

<g transform="translate(0.000000,64.000000) scale(0.100000,-0.100000)"
fill="#000000" stroke="none">
<path d="M430 623 c0 -5 7 -33 15 -63 21 -77 20 -78 -31 -91 -46 -12 -46 -12
-40 -48 3 -20 9 -66 12 -102 5 -55 4 -67 -10 -72 -14 -6 -15 0 -10 49 6 46 4
58 -13 77 -11 12 -23 29 -26 39 -3 10 -22 19 -49 23 -24 4 -60 14 -82 23 -30
12 -43 13 -57 4 -10 -7 -28 -12 -39 -12 -11 0 -24 -8 -27 -17 -4 -10 -19 -31
-35 -46 -15 -16 -28 -39 -28 -52 0 -34 41 -309 47 -315 7 -7 520 -6 527 0 3 3
12 87 21 185 9 99 18 196 21 217 l6 36 -55 13 -56 12 -16 73 c-16 71 -17 74
-46 74 -16 0 -29 -3 -29 -7z m56 -74 c16 -66 16 -69 6 -69 -5 0 -15 29 -24 65
-10 42 -12 65 -5 62 6 -2 16 -28 23 -58z m93 -98 c14 -4 26 -12 28 -18 3 -9
-4 -9 -29 -2 -18 5 -53 9 -78 9 -25 0 -60 -4 -78 -9 -25 -7 -32 -7 -29 2 5 16
43 25 107 25 30 0 66 -3 79 -7z m-376 -18 c9 -3 17 -9 17 -15 0 -5 10 -8 23
-7 48 4 67 -1 67 -19 0 -10 9 -24 20 -32 11 -8 20 -17 20 -20 0 -3 -36 -1 -80
4 -50 6 -110 6 -160 0 -44 -5 -80 -6 -80 -2 0 5 5 8 10 8 6 0 10 7 10 15 0 8
7 15 15 15 8 0 17 11 21 24 4 17 12 24 32 24 14 0 28 5 30 11 2 7 11 9 21 6 9
-4 24 -10 34 -12z m392 -24 c2 -3 -2 -85 -10 -183 -10 -123 -18 -182 -27 -187
-17 -11 -115 -12 -102 -1 5 4 26 20 47 36 25 18 37 35 37 51 0 13 5 27 10 30
17 10 11 51 -10 70 -15 14 -29 16 -64 12 -29 -4 -47 -2 -54 6 -5 7 -12 47 -15
89 -6 74 -6 77 16 82 25 5 165 1 172 -5z m-466 -180 c1 -33 -3 -49 -14 -53
-17 -6 -22 10 -28 91 -3 42 -1 53 12 55 19 4 28 -25 30 -93z m51 31 c0 -56 -3
-70 -15 -70 -10 0 -15 10 -15 33 0 17 -3 49 -6 70 -6 33 -4 37 15 37 19 0 21
-5 21 -70z m56 33 c-3 -21 -6 -45 -6 -54 0 -9 -7 -19 -15 -23 -12 -4 -15 5
-15 54 0 55 2 60 21 60 19 0 21 -4 15 -37z m60 10 c-3 -8 -6 -32 -6 -54 0 -27
-4 -39 -14 -39 -23 0 -28 17 -21 69 6 42 9 48 26 44 13 -4 18 -11 15 -20z
m-220 -126 c6 -73 10 -134 8 -136 -10 -11 -17 16 -34 135 -14 97 -16 130 -7
136 6 4 14 5 16 2 3 -3 10 -64 17 -137z m266 92 c-5 -54 -26 -73 -30 -27 -5
42 6 80 21 75 8 -3 11 -20 9 -48z m68 -44 c0 -4 -19 -15 -42 -25 -47 -21 -143
-27 -154 -9 -4 7 10 9 47 4 44 -5 61 -2 89 14 35 20 60 26 60 16z m118 -17
c19 -19 15 -41 -5 -33 -45 19 -64 16 -110 -13 -62 -40 -110 -48 -185 -32 -61
13 -61 13 -84 -14 l-23 -27 -7 26 c-12 48 8 57 115 50 91 -5 100 -4 166 24 76
32 114 38 133 19z m-14 -60 c17 -27 -2 -49 -69 -83 -49 -25 -73 -30 -152 -33
-101 -5 -143 9 -143 47 0 34 25 45 74 32 74 -18 110 -13 178 24 68 37 95 40
112 13z m-376 -96 c13 -20 13 -22 -6 -22 -13 0 -21 8 -25 25 -5 30 10 29 31
-3z"/>
<path d="M460 130 c0 -5 5 -10 10 -10 6 0 10 5 10 10 0 6 -4 10 -10 10 -5 0
-10 -4 -10 -10z"/>
<path d="M180 90 c0 -5 5 -10 10 -10 6 0 10 5 10 10 0 6 -4 10 -10 10 -5 0
-10 -4 -10 -10z"/>
<path d="M390 90 c0 -5 5 -10 10 -10 6 0 10 5 10 10 0 6 -4 10 -10 10 -5 0
-10 -4 -10 -10z"/>
<path d="M270 60 c0 -5 5 -10 10 -10 6 0 10 5 10 10 0 6 -4 10 -10 10 -5 0
-10 -4 -10 -10z"/>
</g>
</svg>
