<?xml version="1.0" encoding="UTF-8"?>
<!DOCTYPE svg PUBLIC "-//W3C//DTD SVG 1.1//EN" "http://www.w3.org/Graphics/SVG/1.1/DTD/svg11.dtd">
<svg xmlns="http://www.w3.org/2000/svg" version="1.1" width="170px" height="170px" style="shape-rendering:geometricPrecision; text-rendering:geometricPrecision; image-rendering:optimizeQuality; fill-rule:evenodd; clip-rule:evenodd" xmlns:xlink="http://www.w3.org/1999/xlink">
<g><path style="opacity:0.004" fill="#000000" d="M 46.5,16.5 C 71.9967,15.3366 97.6634,15.1699 123.5,16C 97.8355,16.5 72.1688,16.6666 46.5,16.5 Z"/></g>
<g><path style="opacity:0.013" fill="#000000" d="M 40.5,17.5 C 41.6009,16.4017 42.9343,16.235 44.5,17C 43.2068,17.49 41.8734,17.6567 40.5,17.5 Z"/></g>
<g><path style="opacity:0.013" fill="#000000" d="M 125.5,17.5 C 126.601,16.4017 127.934,16.235 129.5,17C 128.207,17.49 126.873,17.6567 125.5,17.5 Z"/></g>
<g><path style="opacity:0.014" fill="#000000" d="M 37.5,18.5 C 37.8966,17.475 38.5632,17.3083 39.5,18C 38.9056,18.4643 38.2389,18.631 37.5,18.5 Z"/></g>
<g><path style="opacity:0.008" fill="#000000" d="M 34.5,19.5 C 34.8966,18.475 35.5632,18.3083 36.5,19C 35.9056,19.4643 35.2389,19.631 34.5,19.5 Z"/></g>
<g><path style="opacity:0.01" fill="#000000" d="M 132.5,19.5 C 132.897,18.475 133.563,18.3083 134.5,19C 133.906,19.4643 133.239,19.631 132.5,19.5 Z"/></g>
<g><path style="opacity:0.012" fill="#000000" d="M 34.5,19.5 C 33.8333,20.1667 33.8333,20.1667 34.5,19.5 Z"/></g>
<g><path style="opacity:1" fill="#08275a" d="M 132.5,19.5 C 139.453,23.4524 145.12,28.7858 149.5,35.5C 149.687,37.5643 150.187,39.5643 151,41.5C 151.667,70.1667 151.667,98.8333 151,127.5C 149.694,132.106 147.86,136.439 145.5,140.5C 143.5,141.833 141.833,143.5 140.5,145.5C 136.439,147.86 132.106,149.694 127.5,151C 98.8333,151.667 70.1667,151.667 41.5,151C 39.5643,150.187 37.5643,149.687 35.5,149.5C 28.7858,145.12 23.4524,139.453 19.5,132.5C 18.364,101.856 18.1973,71.1897 19,40.5C 20.1798,37.4788 21.3465,34.4788 22.5,31.5C 25.1667,28.1667 28.1667,25.1667 31.5,22.5C 34.4788,21.3465 37.4788,20.1798 40.5,19C 71.1963,18.1896 101.863,18.3563 132.5,19.5 Z"/></g>
<g><path style="opacity:0.008" fill="#000000" d="M 135.5,19.5 C 136.833,20.1667 136.833,20.1667 135.5,19.5 Z"/></g>
<g><path style="opacity:0.008" fill="#000000" d="M 31.5,20.5 C 32.8333,21.1667 32.8333,21.1667 31.5,20.5 Z"/></g>
<g><path style="opacity:0.008" fill="#000000" d="M 31.5,21.5 C 31.5,21.8333 31.5,22.1667 31.5,22.5C 30.8299,22.0187 30.8299,21.6853 31.5,21.5 Z"/></g>
<g><path style="opacity:0.004" fill="#000000" d="M 28.5,22.5 C 29.8333,23.1667 29.8333,23.1667 28.5,22.5 Z"/></g>
<g><path style="opacity:0.008" fill="#000000" d="M 28.5,23.5 C 27.8333,24.1667 27.8333,24.1667 28.5,23.5 Z"/></g>
<g><path style="opacity:0.004" fill="#000000" d="M 142.5,24.5 C 141.833,23.1667 141.833,23.1667 142.5,24.5 Z"/></g>
<g><path style="opacity:0.004" fill="#000000" d="M 142.5,24.5 C 143.167,24.5 143.5,24.8333 143.5,25.5C 143.167,25.1667 142.833,24.8333 142.5,24.5 Z"/></g>
<g><path style="opacity:0.004" fill="#000000" d="M 143.5,25.5 C 144.167,25.5 144.5,25.8333 144.5,26.5C 144.167,26.1667 143.833,25.8333 143.5,25.5 Z"/></g>
<g><path style="opacity:0.004" fill="#000000" d="M 144.5,26.5 C 145.167,26.5 145.5,26.8333 145.5,27.5C 145.167,27.1667 144.833,26.8333 144.5,26.5 Z"/></g>
<g><path style="opacity:0.008" fill="#000000" d="M 23.5,27.5 C 24.8333,28.1667 24.8333,28.1667 23.5,27.5 Z"/></g>
<g><path style="opacity:0.004" fill="#000000" d="M 145.5,27.5 C 146.833,28.1667 146.833,28.1667 145.5,27.5 Z"/></g>
<g><path style="opacity:0.004" fill="#000000" d="M 23.5,28.5 C 22.8333,29.1667 22.8333,29.1667 23.5,28.5 Z"/></g>
<g><path style="opacity:0.008" fill="#000000" d="M 22.5,31.5 C 21.8333,30.1667 21.8333,30.1667 22.5,31.5 Z"/></g>
<g><path style="opacity:0.008" fill="#000000" d="M 21.5,31.5 C 20.8333,32.1667 20.8333,32.1667 21.5,31.5 Z"/></g>
<g><path style="opacity:0.012" fill="#000000" d="M 19.5,33.5 C 20.8333,34.1667 20.8333,34.1667 19.5,33.5 Z"/></g>
<g><path style="opacity:0.006" fill="#000000" d="M 150.5,35.5 C 150.167,35.5 149.833,35.5 149.5,35.5C 149.833,32.8333 150.167,32.8333 150.5,35.5 Z"/></g>
<g><path style="opacity:0.008" fill="#000000" d="M 19.5,34.5 C 19.631,35.2389 19.4643,35.9056 19,36.5C 18.3083,35.5632 18.475,34.8966 19.5,34.5 Z"/></g>
<g><path style="opacity:0.01" fill="#000000" d="M 150.5,35.5 C 151.338,35.8417 151.672,36.5084 151.5,37.5C 150.662,37.1583 150.328,36.4916 150.5,35.5 Z"/></g>
<g><path style="opacity:0.01" fill="#000000" d="M 17.5,37.5 C 18.525,37.8966 18.6917,38.5632 18,39.5C 17.5357,38.9056 17.369,38.2389 17.5,37.5 Z"/></g>
<g><path style="opacity:0.009" fill="#000000" d="M 151.5,37.5 C 152.573,38.2506 152.74,39.2506 152,40.5C 151.517,39.552 151.351,38.552 151.5,37.5 Z"/></g>
<g><path style="opacity:0.012" fill="#000000" d="M 16.5,44.5 C 16.3433,43.1266 16.51,41.7932 17,40.5C 17.765,42.0657 17.5983,43.3991 16.5,44.5 Z"/></g>
<g><path style="opacity:0.012" fill="#000000" d="M 152.5,128.5 C 152.333,99.4981 152.5,70.4981 153,41.5C 153.83,70.6696 153.664,99.6696 152.5,128.5 Z"/></g>
<g><path style="opacity:0.004" fill="#000000" d="M 16.5,44.5 C 16.5,71.1667 16.5,97.8333 16.5,124.5C 15.1667,97.8333 15.1667,71.1667 16.5,44.5 Z"/></g>
<g><path style="opacity:1" fill="#fafbfc" d="M 81.5,44.5 C 96.0316,42.4012 108.698,46.2345 119.5,56C 113.757,60.621 107.924,65.121 102,69.5C 87.4057,62.3706 76.9057,66.3706 70.5,81.5C 63.8913,79.8891 57.2246,78.5558 50.5,77.5C 54.3489,60.3201 64.6823,49.3201 81.5,44.5 Z"/></g>
<g><path style="opacity:1" fill="#fafafb" d="M 67.5,88.5 C 68.9778,88.238 70.3112,88.5713 71.5,89.5C 74.4038,98.58 80.5704,103.247 90,103.5C 94.7317,103.353 99.2317,102.519 103.5,101C 107.548,104.716 111.882,108.05 116.5,111C 118.007,111.837 118.507,113.004 118,114.5C 103.118,126.935 86.9518,128.768 69.5,120C 59.515,113.839 53.1816,105.006 50.5,93.5C 56.1752,91.5107 61.8418,89.844 67.5,88.5 Z"/></g>
<g><path style="opacity:0.01" fill="#000000" d="M 16.5,124.5 C 17.4511,125.919 17.7845,127.585 17.5,129.5C 16.5489,128.081 16.2155,126.415 16.5,124.5 Z"/></g>
<g><path style="opacity:0.009" fill="#000000" d="M 152.5,128.5 C 152.768,130.099 152.434,131.432 151.5,132.5C 151.232,130.901 151.566,129.568 152.5,128.5 Z"/></g>
<g><path style="opacity:0.008" fill="#000000" d="M 17.5,129.5 C 18.404,130.209 18.7373,131.209 18.5,132.5C 17.596,131.791 17.2627,130.791 17.5,129.5 Z"/></g>
<g><path style="opacity:0.008" fill="#000000" d="M 18.5,132.5 C 18.8333,132.5 19.1667,132.5 19.5,132.5C 19.1667,135.167 18.8333,135.167 18.5,132.5 Z"/></g>
<g><path style="opacity:0.008" fill="#000000" d="M 151.5,132.5 C 151.672,133.492 151.338,134.158 150.5,134.5C 150.328,133.508 150.662,132.842 151.5,132.5 Z"/></g>
<g><path style="opacity:0.008" fill="#000000" d="M 150.5,134.5 C 150.672,135.492 150.338,136.158 149.5,136.5C 149.328,135.508 149.662,134.842 150.5,134.5 Z"/></g>
<g><path style="opacity:0.008" fill="#000000" d="M 19.5,135.5 C 20.8333,136.167 20.8333,136.167 19.5,135.5 Z"/></g>
<g><path style="opacity:0.012" fill="#000000" d="M 149.5,136.5 C 148.833,137.167 148.833,137.167 149.5,136.5 Z"/></g>
<g><path style="opacity:0.004" fill="#000000" d="M 147.5,138.5 C 148.833,139.167 148.833,139.167 147.5,138.5 Z"/></g>
<g><path style="opacity:0.012" fill="#000000" d="M 147.5,139.5 C 146.833,140.167 146.833,140.167 147.5,139.5 Z"/></g>
<g><path style="opacity:0.004" fill="#000000" d="M 145.5,140.5 C 145.833,140.5 146.167,140.5 146.5,140.5C 146.315,141.17 145.981,141.17 145.5,140.5 Z"/></g>
<g><path style="opacity:0.004" fill="#000000" d="M 24.5,142.5 C 23.8333,141.167 23.8333,141.167 24.5,142.5 Z"/></g>
<g><path style="opacity:0.004" fill="#000000" d="M 24.5,142.5 C 25.1667,142.5 25.5,142.833 25.5,143.5C 25.1667,143.167 24.8333,142.833 24.5,142.5 Z"/></g>
<g><path style="opacity:0.004" fill="#000000" d="M 25.5,143.5 C 26.1667,143.5 26.5,143.833 26.5,144.5C 26.1667,144.167 25.8333,143.833 25.5,143.5 Z"/></g>
<g><path style="opacity:0.004" fill="#000000" d="M 26.5,144.5 C 27.1667,144.5 27.5,144.833 27.5,145.5C 27.1667,145.167 26.8333,144.833 26.5,144.5 Z"/></g>
<g><path style="opacity:0.004" fill="#000000" d="M 27.5,145.5 C 28.8333,146.167 28.8333,146.167 27.5,145.5 Z"/></g>
<g><path style="opacity:0.004" fill="#000000" d="M 140.5,145.5 C 141.833,146.167 141.833,146.167 140.5,145.5 Z"/></g>
<g><path style="opacity:0.004" fill="#000000" d="M 140.5,146.5 C 139.833,147.167 139.833,147.167 140.5,146.5 Z"/></g>
<g><path style="opacity:0.004" fill="#000000" d="M 139.5,147.5 C 138.833,148.167 138.833,148.167 139.5,147.5 Z"/></g>
<g><path style="opacity:0.012" fill="#000000" d="M 136.5,148.5 C 137.833,149.167 137.833,149.167 136.5,148.5 Z"/></g>
<g><path style="opacity:0.008" fill="#000000" d="M 35.5,149.5 C 35.5,149.833 35.5,150.167 35.5,150.5C 32.8333,150.167 32.8333,149.833 35.5,149.5 Z"/></g>
<g><path style="opacity:0.008" fill="#000000" d="M 134.5,150.5 C 134.842,149.662 135.508,149.328 136.5,149.5C 136.158,150.338 135.492,150.672 134.5,150.5 Z"/></g>
<g><path style="opacity:0.014" fill="#000000" d="M 35.5,150.5 C 36.4916,150.328 37.1583,150.662 37.5,151.5C 36.5084,151.672 35.8417,151.338 35.5,150.5 Z"/></g>
<g><path style="opacity:0.012" fill="#000000" d="M 134.5,150.5 C 134.103,151.525 133.437,151.692 132.5,151C 133.094,150.536 133.761,150.369 134.5,150.5 Z"/></g>
<g><path style="opacity:0.012" fill="#000000" d="M 37.5,151.5 C 38.552,151.351 39.552,151.517 40.5,152C 39.2506,152.74 38.2506,152.573 37.5,151.5 Z"/></g>
<g><path style="opacity:0.01" fill="#000000" d="M 128.5,152.5 C 129.251,151.427 130.251,151.26 131.5,152C 130.552,152.483 129.552,152.649 128.5,152.5 Z"/></g>
<g><path style="opacity:0.012" fill="#000000" d="M 128.5,152.5 C 99.6696,153.664 70.6696,153.83 41.5,153C 70.4981,152.5 99.4981,152.333 128.5,152.5 Z"/></g>
</svg>
